<svg width="150" height="150" xmlns="http://www.w3.org/2000/svg">
 <g>
  <title>Layer 1</title>
  <path id="svg_4" d="m26,20.5" opacity="NaN" stroke="#000" fill="#ff0000"/>
  <path d="m5,7c0,0 1.85273,1.17309 3,2c3.62799,2.6149 8.54738,5.30003 10,7c5.58833,6.53992 8.22885,5.72962 13,10c2.10754,1.88634 3.90633,4.1034 5,5c2.78833,2.28588 4,3 5,4c1,1 1.69255,2.18601 3,4c0.8269,1.14727 2.69255,3.18601 4,5c1.65381,2.29454 4.41886,3.41886 6,5c1.58114,1.58114 2,3 4,5c1,1 2,3 4,5c1,1 3.1731,2.85273 4,4c1.30745,1.814 3.32367,3.52016 5,5c2.703,2.38616 4,5 6,7c2,2 4,4 5,5c1,1 2,1 3,2c1,1 2.186,2.69255 4,4c1.14727,0.8269 4,4 5,5c3,3 4.72399,5.22273 8,9c0.9266,1.06837 4,4 6,6c2,2 4.1731,3.85273 5,5c1.30745,1.814 2.29289,3.29289 3,4c0.70711,0.70711 2,2 2,2c1,1 1,2 2,3c0,0 1.4588,0.69344 2,2c0.38268,0.92388 1,1 1,2c0,1 0.61732,1.07612 1,2c0.5412,1.30656 1,1 2,2c1,1 1.61732,1.07613 2,2c0.5412,1.30656 2,1 3,2c0,0 1.07613,0.61731 2,1c1.30656,0.5412 2.29289,0.29289 3,1c0.70711,0.70711 0.29289,1.29289 1,2c1.41422,1.41422 3,1 4,1l0,1" id="svg_8" stroke-width="11" stroke="#bf0000" fill="none"/>
  <path d="m8,136c0,-1 0.14429,-1.93414 1,-4c1.21015,-2.92157 3.4159,-5.76108 5,-9c1.38935,-2.84072 2.41886,-4.41886 4,-6c1.58114,-1.58114 2.07612,-3.61732 3,-4c2.61313,-1.08239 3,-4 4,-5c2,-2 4.34619,-2.70546 6,-5c1.30745,-1.814 3.18601,-3.69255 5,-5c2.29454,-1.65381 4.21167,-3.71412 7,-6c3.28101,-2.68979 5.55819,-5.51929 9,-8c3.62799,-2.61491 7,-4 10,-6c3,-2 6.21168,-3.71412 9,-6c2.18734,-1.79319 4,-4 6,-6c2,-2 3.31075,-4.53492 5,-6c2.38895,-2.07193 5,-3 7,-5c3,-3 4.21168,-3.71412 7,-6c1.09367,-0.8966 2.88152,-3.19028 6,-5c1.934,-1.12234 4.186,-2.69255 6,-4c1.14727,-0.8269 4,-2 5,-3c2,-2 3.70546,-3.34619 6,-5c1.814,-1.30745 4,-3 6,-5c1,-1 3.1731,-1.85273 4,-3c1.30745,-1.81399 3,-3 4,-4c1,-1 1,-1 2,-1l0,-1l0,0l0,0" id="svg_9" stroke-width="11" stroke="#bf0000" fill="none"/>
 </g>

</svg>