<svg width="150" height="150" xmlns="http://www.w3.org/2000/svg">
 <g>
  <title>Layer 1</title>
  <path id="svg_4" d="m26,20.5" opacity="NaN" stroke="#000" fill="#ff0000"/>
  <path d="m71,9c0,0 -1,0 -2,0c-1,0 -2,0 -3,0c-2,0 -3.0535,0.54049 -5,1c-2.17625,0.51374 -3.85273,2.17309 -5,3c-1.81399,1.30745 -4,2 -6,3c-2,1 -3.85273,2.1731 -5,3c-1.81399,1.30745 -3,2 -4,3c-1,1 -2.85273,3.1731 -4,4c-1.81399,1.30745 -3,3 -5,5c-1,1 -2,2 -3,3c-1,1 -2.4588,2.69344 -3,4c-0.38268,0.92388 -1.4588,2.69344 -2,4c-0.76537,1.84776 -0.54049,3.0535 -1,5c-0.51374,2.17625 -1.4588,3.69344 -2,5c-0.76537,1.84776 0.22975,4.02675 0,5c-0.51374,2.17625 -1,4 -1,5c0,2 -1,4 -1,5c0,2 0,4 0,5c0,2 0,4 0,6c0,2 0.31074,3.08025 1,6c0.51374,2.17625 1.71022,3.04291 2,4c1.04483,3.45084 3,4 4,6c1,2 1.69255,3.186 3,5c0.8269,1.14727 3,3 4,5c1,2 1.94854,3.2987 3,5c1.17557,1.90211 2.47427,3.14935 3,4c1.17557,1.90211 3.18601,2.69255 5,4c2.29454,1.65381 3.15928,2.61065 6,4c3.23892,1.58411 5.88152,3.19028 9,5c1.934,1.12234 4.87856,2.49345 8,3c0.98709,0.16019 3.82375,0.48625 6,1c1.9465,0.4595 5,0 7,0c2,0 4,0 6,0c2,0 4.02583,0.32036 6,0c3.12144,-0.50655 5.93414,-2.14429 8,-3c2.92156,-1.21015 5.76108,-3.41589 9,-5c2.84072,-1.38935 6.31001,-3.33749 9,-5c2.40601,-1.48699 2.69255,-4.186 4,-6c1.65381,-2.29454 3.1731,-3.85273 4,-5c1.30745,-1.814 1.71021,-3.04291 2,-4c1.04483,-3.45084 2.4588,-4.69344 3,-6c1.14806,-2.77164 1,-5 1,-7c0,-2 0,-5 0,-7c0,-2 0,-4 0,-6c0,-2 0.16019,-5.01291 0,-6c-0.50655,-3.12144 -1.5405,-5.0535 -2,-7c-0.51375,-2.17625 -3,-4 -4,-6c-1,-2 -2,-4 -3,-6c-1,-2 -3.34619,-3.70546 -5,-6c-1.30745,-1.81399 -4,-4 -6,-6c-2,-2 -4.21168,-3.71412 -7,-6c-2.18734,-1.79319 -4,-4 -6,-6c-2,-2 -3,-4 -5,-6c-1,-1 -2.14935,-1.47427 -3,-2c-1.90211,-1.17557 -2.186,-1.69255 -4,-3c-1.14727,-0.82691 -2.186,-0.69255 -4,-2c-1.14727,-0.82691 -3.15224,-1.23463 -5,-2c-1.30656,-0.5412 -3,-1 -4,-2l-1,0l-1,0" id="svg_12" stroke-width="11" stroke="#0000ff" fill="none"/>
 </g>
</svg>